<?xml version="1.0" encoding="UTF-8"?>
<svg width="64px" height="54px" viewBox="0 0 64 54" version="1.1" xmlns="http://www.w3.org/2000/svg" xmlns:xlink="http://www.w3.org/1999/xlink">
    <!-- Generator: Sketch 58 (84663) - https://sketch.com -->
    <title>icon with delay</title>
    <desc>Created with Sketch.</desc>
    <g id="Page-1" stroke="none" stroke-width="1" fill="none" fill-rule="evenodd">
        <g id="icon-with-delay">
            <path d="M50,0 C52.7614237,-5.07265313e-16 55,2.23857625 55,5 L55,49 C55,51.7614237 52.7614237,54 50,54 L5,54 C2.23857625,54 3.38176876e-16,51.7614237 0,49 L0,5 C-3.38176876e-16,2.23857625 2.23857625,5.07265313e-16 5,0 L50,0 Z M48,5 L7,5 C5.9456382,5 5.08183488,5.81587779 5.00548574,6.85073766 L5,7 L5,46.12 L13.1072234,32.4033291 L17.6998415,39.3891035 L27.3006793,21.8207636 L40.316,49 L48,49 C49.0543618,49 49.9181651,48.1841222 49.9945143,47.1492623 L50,47 L50,7 C50,5.8954305 49.1045695,5 48,5 Z M38,12 C40.7614237,12 43,14.2385763 43,17 C43,19.7614237 40.7614237,22 38,22 C35.2385763,22 33,19.7614237 33,17 C33,14.2385763 35.2385763,12 38,12 Z" id="icon" fill="#000000"></path>
            <g id="clock" transform="translate(35.000000, 25.000000)" fill-rule="nonzero">
                <circle id="Oval" fill="#FFFFFF" cx="14.5" cy="14.5" r="12.0833333"></circle>
                <path d="M14.5,29 C22.5081289,29 29,22.5081289 29,14.5 C29,6.49187112 22.5081289,0 14.5,0 C6.49187112,0 0,6.49187112 0,14.5 C0,22.5081289 6.49187112,29 14.5,29 Z M14.5,24.1666667 C9.16124742,24.1666667 4.83333333,19.8387526 4.83333333,14.5 C4.83333333,9.16124742 9.16124742,4.83333333 14.5,4.83333333 C19.8387526,4.83333333 24.1666667,9.16124742 24.1666667,14.5 C24.1666667,19.8387526 19.8387526,24.1666667 14.5,24.1666667 Z" id="Oval" fill="#000000"></path>
                <path d="M14.9268973,13.6743346 L11.5302298,12.2673096 C10.2971489,11.7565219 8.8834642,12.3420563 8.37267659,13.5751372 C7.86188898,14.8082181 8.44742334,16.2219028 9.68050423,16.7326904 L13.0771717,18.1397155 C14.3102526,18.6505031 15.7239373,18.0649687 16.2347249,16.8318878 C16.7455126,15.598807 16.1599782,14.1851222 14.9268973,13.6743346 Z" id="Line" fill="#000000"></path>
                <path d="M15.228469,17.9893641 L20.5443638,14.8285493 C21.694408,14.1512083 22.0776095,12.6698199 21.4002684,11.5197757 C20.7229273,10.3697316 19.2415389,9.98653004 18.0914948,10.6638711 L12.7756,13.8246859 C11.6255559,14.502027 11.2423543,15.9834154 11.9196954,17.1334596 C12.5970365,18.2835037 14.0784249,18.6667052 15.228469,17.9893641 Z" id="Line" fill="#000000"></path>
            </g>
        </g>
    </g>
</svg>