<?xml version="1.0" encoding="UTF-8"?>
<svg width="55px" height="54px" viewBox="0 0 55 54" version="1.1" xmlns="http://www.w3.org/2000/svg" xmlns:xlink="http://www.w3.org/1999/xlink">
    <!-- Generator: Sketch 58 (84663) - https://sketch.com -->
    <title>icon</title>
    <desc>Created with Sketch.</desc>
    <g id="Page-1" stroke="none" stroke-width="1" fill="none" fill-rule="evenodd">
        <path d="M50,0 C52.7614237,-5.07265313e-16 55,2.23857625 55,5 L55,49 C55,51.7614237 52.7614237,54 50,54 L5,54 C2.23857625,54 3.38176876e-16,51.7614237 0,49 L0,5 C-3.38176876e-16,2.23857625 2.23857625,5.07265313e-16 5,0 L50,0 Z M48,5 L7,5 C5.9456382,5 5.08183488,5.81587779 5.00548574,6.85073766 L5,7 L5,46.12 L13.1072234,32.4033291 L17.6998415,39.3891035 L27.3006793,21.8207636 L40.316,49 L48,49 C49.0543618,49 49.9181651,48.1841222 49.9945143,47.1492623 L50,47 L50,7 C50,5.8954305 49.1045695,5 48,5 Z M38,12 C40.7614237,12 43,14.2385763 43,17 C43,19.7614237 40.7614237,22 38,22 C35.2385763,22 33,19.7614237 33,17 C33,14.2385763 35.2385763,12 38,12 Z" id="icon" fill="#000000"></path>
    </g>
</svg>