<?xml version="1.0" encoding="UTF-8"?>
<svg width="31px" height="24px" viewBox="0 0 31 24" version="1.1" xmlns="http://www.w3.org/2000/svg" xmlns:xlink="http://www.w3.org/1999/xlink">
    <!-- Generator: Sketch 58 (84663) - https://sketch.com -->
    <title>pepper-delay</title>
    <desc>Created with Sketch.</desc>
    <g id="Page-1" stroke="none" stroke-width="1" fill="none" fill-rule="evenodd">
        <g id="pepper">
            <g id="skeleton" fill="#000000">
                <path d="M13.4687811,23.5 C14.8169631,23.5 16.0276042,23.1988361 17.1639361,22.5939777 C18.0068342,22.1453112 18.7616435,21.5707267 19.6980432,20.6762965 L19.8039594,20.5745509 L19.9058338,20.4756933 C19.9925264,20.3909802 19.9925264,20.3909802 20.0845332,20.300311 L20.720092,19.6687001 L20.7870834,19.6026508 C21.1188828,19.2763097 21.3593046,19.0522835 21.589907,18.8559301 L21.6146566,18.8349349 C21.8424678,18.6423882 22.0529402,18.4850261 22.2559006,18.3565491 C23.2966981,17.6977087 24.3063089,17.3166541 25.2850626,17.2178299 C25.4124235,17.2049703 25.5178067,17.1016874 25.5364006,16.9667082 L25.548707,16.874018 L25.5703773,16.6989108 C25.6941304,15.6682833 25.9809284,12.8410289 26.4360513,8.16524896 C26.4490351,8.0318582 26.3763322,7.90749158 26.2611033,7.85839335 C25.4297017,7.50413875 24.6956094,7.04839479 23.9891636,6.45397209 L23.9309541,6.40465756 C23.4457423,5.9908148 23.013874,5.55476223 22.3540357,4.8189787 L21.8659651,4.27125605 L21.7835861,4.17935406 C20.5892526,2.85036492 19.9111817,2.2556694 18.9311163,1.69301936 C17.5335109,0.890661898 15.8604726,0.5 13.7182772,0.5 C11.5607274,0.5 9.84458971,0.896073812 8.37659813,1.7089919 L8.30572862,1.74855462 L8.23258336,1.79011666 C7.27046532,2.34176263 6.55498323,2.9453014 5.27291566,4.27047917 L4.83214446,4.72857837 C4.02902786,5.5624366 3.55863284,6.00876715 3.00898142,6.45109332 C2.26868996,7.04683505 1.51534551,7.50340202 0.677079855,7.85812966 C0.559844754,7.90773987 0.486621587,8.03507481 0.502084766,8.17065983 L0.584840358,8.89948401 L0.674017931,9.69284233 C1.12621689,13.7392035 1.35589245,16.1684834 1.35589245,16.9212992 C1.35589245,17.0743676 1.46482972,17.1998107 1.59806564,17.2163968 L1.61094459,17.2178736 C2.47243666,17.3034181 3.53074311,17.6900916 4.77191936,18.3657955 C4.82703736,18.3958021 4.88288477,18.4286877 4.9396085,18.4644906 C5.24970394,18.6602162 5.57798908,18.9347427 6.02191045,19.3640257 L6.13027565,19.4700877 L6.96145821,20.2995165 C7.16626045,20.5028859 7.31821983,20.6522473 7.4075462,20.7375706 C8.31858956,21.6077868 9.08474926,22.186976 9.92502287,22.6295716 C11.0269698,23.2099979 12.191511,23.5 13.4687811,23.5 Z M1.89174444,16.2703905 L1.88146345,16.1141017 L1.86677938,15.9087105 C1.7666196,14.5596232 1.52190882,12.1706381 1.12655734,8.6802231 L1.0869319,8.33038442 L1.40294443,8.17516408 C2.08559007,7.8398594 2.72156403,7.43041596 3.34801802,6.9262862 L3.41018564,6.87598291 L3.47274954,6.82476406 C3.98171218,6.40563115 4.43928856,5.96917182 5.18374686,5.19753201 L5.61832436,4.74573831 L5.73941207,4.62068084 C6.95659063,3.36772719 7.65495084,2.7854653 8.60292762,2.25588303 L8.63537046,2.2378395 C10.0295979,1.46576566 11.6588092,1.09574468 13.7182772,1.09574468 C15.7579391,1.09574468 17.3424055,1.45846078 18.6651338,2.21783665 L18.7282042,2.25439775 C19.6252142,2.7793487 20.2781258,3.36440493 21.4239409,4.64313343 L21.8717367,5.14583264 C22.6264509,5.99102024 23.0908289,6.45877767 23.6407125,6.92146189 C24.2438764,7.42897723 24.8667624,7.84102254 25.5456967,8.17819007 L25.8545869,8.33158895 L25.8209155,8.6748245 L25.588344,11.0455766 L25.4654428,12.2845712 C25.2760523,14.184248 25.1381555,15.5179532 25.0525484,16.2779549 L25.0117412,16.6402325 L24.6543386,16.7121604 C23.7793344,16.8882568 22.8835937,17.2653087 21.9675832,17.8451571 C21.743513,17.986997 21.5133426,18.1585611 21.2653009,18.3682027 L21.2126842,18.4129745 L21.1586156,18.4596437 C20.9433088,18.6467895 20.7152012,18.8606348 20.4107639,19.1599669 L19.7329937,19.8331134 L19.5601557,20.0031426 C19.5273197,20.0352178 19.5273197,20.0352178 19.4940549,20.0675863 L19.3738932,20.183735 C18.4562779,21.0654401 17.7226252,21.6299548 16.9116342,22.0616374 C15.852546,22.6253797 14.7277624,22.9042553 13.4687811,22.9042553 C12.2794598,22.9042553 11.1999036,22.6358464 10.1752097,22.0961114 C9.39745075,21.686444 8.6793532,21.1445017 7.83524814,20.3438977 L7.73214407,20.2451957 L7.53968103,20.0567145 C7.4341011,19.9525589 7.30717379,19.8265176 7.15695181,19.6767818 C7.15306011,19.6729026 7.15306011,19.6729026 7.14916869,19.6690234 C7.0385062,19.558707 6.51165061,19.0320376 6.47239611,18.9935118 L6.39303134,18.916379 L6.31493755,18.8413586 C5.87969678,18.4258032 5.55115569,18.1571138 5.22730775,17.9527078 C5.160268,17.9103938 5.09417872,17.8715128 5.02878239,17.8359106 C3.98999429,17.270388 3.07719728,16.9020032 2.28237569,16.7256777 L1.91637207,16.6444824 L1.89174444,16.2703905 Z" id="Oval-Copy-15" stroke="#000000" fill-rule="nonzero"></path>
                <ellipse id="Oval-Copy-16" cx="13.4864307" cy="5.71276596" rx="1" ry="1"></ellipse>
                <path d="M13.4864307,19.1808511 C14.6600358,19.1808511 15.6114307,18.3521016 15.6114307,17.3297872 L11.3614307,17.3297872 C11.3614307,18.3521016 12.3128256,19.1808511 13.4864307,19.1808511 Z" id="Oval-Copy-17"></path>
                <path d="M12.0489307,14.1382979 C12.0489307,14.4236533 12.1376366,14.7427655 12.3264114,15.0019966 C12.581467,15.3522462 12.9850833,15.5520526 13.5133951,15.5520526 C14.0068897,15.5520526 14.4004307,15.36266 14.6624811,15.0323 C14.8695816,14.7712139 14.9778595,14.4375211 14.9778595,14.1382979 L14.2278595,14.1382979 C14.2278595,14.2671705 14.1750261,14.4299935 14.0797128,14.5501524 C13.9608703,14.699974 13.7819181,14.7860952 13.5133951,14.7860952 C13.2183553,14.7860952 13.0393252,14.6974681 12.9282251,14.5449022 C12.8432258,14.4281788 12.7989307,14.2688305 12.7989307,14.1382979 L12.0489307,14.1382979 Z" id="Oval-Copy-18" fill-rule="nonzero" transform="translate(13.513395, 14.845175) rotate(-180.000000) translate(-13.513395, -14.845175) "></path>
                <path d="M2.75193922,9.58113851 L3.50193922,17.1449683 C3.52280534,17.3554054 3.70675961,17.5087231 3.91281257,17.487413 C4.11886553,17.4661029 4.26898913,17.2782347 4.24812301,17.0677977 L3.49812301,9.50396787 C3.47725688,9.2935308 3.29330262,9.14021309 3.08724966,9.16152317 C2.88119669,9.18283325 2.7310731,9.37070144 2.75193922,9.58113851 Z" id="Line-Copy-4" fill-rule="nonzero"></path>
                <path d="M23.2203638,7.47131882 L23.8453638,14.3968507 C23.8643714,14.6074714 24.0469648,14.7624766 24.2531975,14.7430645 C24.4594302,14.7236525 24.6112061,14.5371742 24.5921985,14.3265535 L23.9671985,7.4010216 C23.9481908,7.19040097 23.7655975,7.03539578 23.5593648,7.05480782 C23.3531321,7.07421986 23.2013561,7.26069818 23.2203638,7.47131882 Z" id="Line-Copy-5" fill-rule="nonzero" transform="translate(23.906281, 10.898936) scale(-1, 1) translate(-23.906281, -10.898936) "></path>
            </g>
            <g id="eye-right" transform="translate(15.000000, 8.000000)">
                <ellipse id="Oval" fill="#000000" cx="3" cy="3.53043478" rx="2" ry="3"></ellipse>
                <path d="M3.06382979,3.71304348 C3.43985345,3.71304348 3.78027898,3.71304348 4.08510638,3.71304348 C4.08510638,2.7045235 3.62786528,1.88695652 3.06382979,1.88695652 L3.06382979,3.71304348 Z" id="Oval" fill="#FFFFFF"></path>
            </g>
            <g id="eye-left" transform="translate(6.000000, 8.000000)">
                <ellipse id="Oval" fill="#000000" cx="3" cy="3.53043478" rx="2" ry="3"></ellipse>
                <path d="M3.06382979,3.71304348 C3.43985345,3.71304348 3.78027898,3.71304348 4.08510638,3.71304348 C4.08510638,2.7045235 3.62786528,1.88695652 3.06382979,1.88695652 L3.06382979,3.71304348 Z" id="Oval" fill="#FFFFFF"></path>
            </g>
        </g>
        <g id="Group-2-Copy" transform="translate(19.000000, 12.000000)">
            <circle id="Oval" fill="#FFFFFF" cx="6" cy="6" r="5"></circle>
            <path d="M6,12 C9.3137085,12 12,9.3137085 12,6 C12,2.6862915 9.3137085,0 6,0 C2.6862915,0 0,2.6862915 0,6 C0,9.3137085 2.6862915,12 6,12 Z M6,10 C3.790861,10 2,8.209139 2,6 C2,3.790861 3.790861,2 6,2 C8.209139,2 10,3.790861 10,6 C10,8.209139 8.209139,10 6,10 Z" id="Oval" fill="#000000" fill-rule="nonzero"></path>
            <path d="M6.17664716,5.65834536 L4.77112958,5.07612809 C4.26088922,4.8647677 3.67591622,5.10705779 3.46455583,5.61729815 C3.25319544,6.12753852 3.49548552,6.71251151 4.00572589,6.92387191 L5.41124347,7.50608917 C5.92148383,7.71744956 6.50645682,7.47515947 6.71781722,6.96491911 C6.92917761,6.45467874 6.68688752,5.86970575 6.17664716,5.65834536 Z" id="Line" fill="#000000" fill-rule="nonzero"></path>
            <path d="M6.30143546,7.44387482 L8.50111607,6.13595145 C8.9769964,5.85567238 9.13556256,5.24268408 8.85528349,4.76680374 C8.57500442,4.29092341 7.96201611,4.13235726 7.48613578,4.41263633 L5.28645517,5.7205597 C4.81057484,6.00083877 4.65200868,6.61382708 4.93228775,7.08970741 C5.21256682,7.56558774 5.82555513,7.72415389 6.30143546,7.44387482 Z" id="Line" fill="#000000" fill-rule="nonzero"></path>
        </g>
    </g>
</svg>