<?xml version="1.0" encoding="UTF-8"?>
<svg width="486px" height="428px" viewBox="0 0 486 428" version="1.1" xmlns="http://www.w3.org/2000/svg" xmlns:xlink="http://www.w3.org/1999/xlink">
    <!-- Generator: Sketch 58 (84663) - https://sketch.com -->
    <title>pepper</title>
    <desc>Created with Sketch.</desc>
    <g id="pepper" stroke="none" stroke-width="1" fill="none" fill-rule="evenodd">
        <g>
            <path d="M243,428 C332.108407,428 367.155623,367.216795 408.536117,341.089603 C429.219144,328.030565 449.308329,320.519357 468.803673,318.555978 C470.659321,305.115166 476.39143,242.136012 486,129.618518 C388.180402,88.0453092 394.837592,0 247.778527,0 C100.719461,0 98.4956726,88.0453092 0,129.618518 C10.9280423,239.247652 16.3920635,302.226805 16.3920635,318.555978 C33.5165039,320.252035 54.349598,327.763243 78.891346,341.089603 C117.217036,361.900751 153.891593,428 243,428 Z" id="bg" fill="#FFFFFF"></path>
            <g id="skeleton" transform="translate(27.499502, 26.000000)" fill="#303030">
                <path d="M215.500498,376 C238.798653,376 259.408685,370.775956 278.381947,360.887074 C293.119227,353.205991 305.857388,343.469916 320.711062,329.577521 L322.434612,327.956194 L324.077599,326.395047 C325.005158,325.509686 325.964557,324.587447 326.991759,323.594414 L337.138148,313.721035 L338.20308,312.692945 C343.253477,307.829117 347.016744,304.382031 350.61384,301.382967 L350.998658,301.063309 C354.356544,298.284341 357.438762,296.023538 360.373291,294.204637 C376.108668,284.451422 391.095931,278.9504 405.364671,277.539707 C411.103839,276.972299 415.709866,272.552121 416.51303,266.841172 L416.718765,265.321541 L417.06898,262.550153 C419.064312,246.279039 423.668288,201.823704 430.939191,128.681115 C431.483079,123.209798 428.38794,118.02551 423.313592,115.908409 C410.522914,110.57193 399.480789,103.772246 388.997617,95.1352394 L388.086734,94.3796821 C380.38176,87.9449296 373.580771,81.1428268 363.637295,70.2859427 L355.812492,61.6877822 L354.48764,60.2405796 C335.667649,39.7350089 324.03947,29.3759601 306.880907,19.730547 C283.599392,6.6432132 255.637159,0 219.492436,0 C183.102757,0 154.480364,6.72889854 130.124876,19.9351225 L128.939117,20.5835387 L127.742089,21.2496024 C110.894254,30.708332 98.6269493,41.2056474 78.6018167,61.4729585 L71.5522399,68.6470361 C59.4341166,80.9668914 51.934382,88.0253767 43.1281518,94.9644573 C32.0608705,103.685187 20.6610259,110.532716 7.71558535,115.896692 C2.55352167,118.035606 -0.562016043,123.340647 0.0844346883,128.890778 L1.40751159,140.300247 L2.83378004,152.724524 C10.0536871,215.983668 13.6942793,253.790598 13.6942793,265.100354 C13.6942793,271.433237 18.4259275,276.747776 24.6807866,277.508447 L24.9846164,277.541685 C37.4199345,278.750763 53.3510473,284.38942 72.5255713,294.610675 C73.2523081,294.998073 73.9978641,295.427886 74.7637271,295.901211 C79.2431551,298.669629 84.1525325,302.716555 90.7557089,308.968785 L92.4335407,310.576231 L105.74637,323.584172 C108.686802,326.443201 111.381014,329.043545 112.994993,330.553078 C127.459896,344.081909 140.375597,353.880844 155.07211,361.460637 C173.489362,370.959417 193.359684,376 215.500498,376 Z M38.2506312,254.388205 L38.0830429,251.895585 L37.8465129,248.656493 C36.2260623,227.284791 32.2789547,189.612268 25.9740877,135.108535 C37.6396098,129.497989 48.3014895,122.716674 58.6011113,114.60084 L59.6308198,113.784837 L60.6495581,112.968165 C69.4358651,105.883345 77.172578,98.5634674 88.7056149,86.8583706 L95.6405504,79.7988414 L97.5687743,77.8488755 C115.942492,59.3291575 126.741576,50.2802047 141.535398,42.1878756 L142.041489,41.9122545 C162.597317,30.7663123 187.125202,25 219.492436,25 C251.52369,25 275.274378,30.6426426 294.630434,41.5233419 L295.610568,42.0795988 C309.566773,50.0769364 319.635725,59.186322 336.809403,77.9527954 L343.980574,85.8354852 C355.714249,98.7020102 363.577475,106.583894 373.100762,114.430058 C383.05081,122.627827 393.533071,129.480758 405.172866,135.140804 L401.452573,172.274141 L399.486548,191.68118 C396.456424,221.44157 394.254486,242.292345 392.891048,254.144486 C377.835678,257.111286 362.600745,263.411144 347.202451,272.955426 C343.223049,275.421968 339.241427,278.342482 335.059368,281.803532 L334.17544,282.54026 L333.289657,283.288954 C329.591197,286.436702 325.772532,289.957201 320.934729,294.614919 L310.117521,305.134638 L307.369756,307.781485 C307.022679,308.113755 306.681685,308.439311 306.344814,308.760003 L304.439437,310.563424 C290.739397,323.453076 279.46828,332.129008 266.827177,338.717562 C251.36278,346.77762 234.704538,351 215.500498,351 C197.438963,351 181.480758,346.951819 166.531611,339.24173 C154.457629,333.01452 143.475179,324.744717 130.894757,313.061312 L129.311653,311.578069 L126.253205,308.645371 C120.2017,302.799875 110.811553,293.559409 109.133516,291.947179 L107.83057,290.707443 L106.56349,289.515638 C99.466981,282.881252 93.7616079,278.253258 87.906933,274.634897 C86.6974404,273.887395 85.4917215,273.192298 84.2856567,272.549388 C67.1647859,263.422863 51.8603649,257.344527 38.2506312,254.388205 Z" id="Oval-Copy-15" fill-rule="nonzero"></path>
                <circle id="Oval-Copy-16" cx="215.782891" cy="89.5" r="10"></circle>
                <path d="M215.782891,300.5 C234.560572,300.5 249.782891,287.516258 249.782891,271.5 L181.782891,271.5 C181.782891,287.516258 197.00521,300.5 215.782891,300.5 Z" id="Oval-Copy-17"></path>
                <path d="M192.782891,221.5 C192.782891,225.970568 194.202185,230.969993 197.222583,235.031279 C201.303471,240.518523 207.761333,243.648825 216.214322,243.648825 C224.110236,243.648825 230.406891,240.681674 234.599697,235.506034 C237.913305,231.415685 239.645752,226.18783 239.645752,221.5 L227.645752,221.5 C227.645752,223.519004 226.800417,226.069898 225.275405,227.952388 C223.373925,230.299592 220.51069,231.648825 216.214322,231.648825 C211.493684,231.648825 208.629203,230.260333 206.851601,227.870134 C205.491614,226.041468 204.782891,223.545012 204.782891,221.5 L192.782891,221.5 Z" id="Oval-Copy-18" fill-rule="nonzero" transform="translate(216.214322, 232.574412) rotate(-180.000000) translate(-216.214322, -232.574412) "></path>
                <path d="M44.0310275,150.104503 L56.0310275,268.604503 C56.3648855,271.901351 59.3081537,274.303328 62.6050011,273.96947 C65.9018486,273.635612 68.3038261,270.692344 67.9699681,267.395497 L55.9699681,148.895497 C55.6361102,145.598649 52.6928419,143.196672 49.3959945,143.53053 C46.0991471,143.864388 43.6971695,146.807656 44.0310275,150.104503 Z" id="Line-Copy-4" fill-rule="nonzero"></path>
                <path d="M371.52582,117.050662 L381.52582,225.550662 C381.829942,228.850385 384.751436,231.2788 388.051159,230.974678 C391.350883,230.670556 393.779297,227.749062 393.475175,224.449338 L383.475175,115.949338 C383.171053,112.649615 380.24956,110.2212 376.949836,110.525322 C373.650113,110.829444 371.221698,113.750938 371.52582,117.050662 Z" id="Line-Copy-5" fill-rule="nonzero" transform="translate(382.500498, 170.750000) scale(-1, 1) translate(-382.500498, -170.750000) "></path>
            </g>
            <g id="eye-right" transform="translate(270.282393, 143.500000)">
                <ellipse id="Oval" fill="#9FF1FF" cx="47" cy="57.5" rx="47" ry="57.5"></ellipse>
                <ellipse id="Oval" fill="#303030" cx="47" cy="58" rx="28" ry="39"></ellipse>
                <path d="M48,61 C53.8910373,61 59.2243707,61 64,61 C64,44.4314575 56.836556,31 48,31 L48,61 Z" id="Oval" fill="#FFFFFF"></path>
            </g>
            <g id="eye-left" transform="translate(123.000000, 143.500000)">
                <ellipse id="Oval" fill="#9FF1FF" cx="47" cy="57.5" rx="47" ry="57.5"></ellipse>
                <ellipse id="Oval" fill="#303030" cx="47" cy="58" rx="28" ry="39"></ellipse>
                <path d="M48,61 C53.8910373,61 59.2243707,61 64,61 C64,44.4314575 56.836556,31 48,31 L48,61 Z" id="Oval" fill="#FFFFFF"></path>
            </g>
        </g>
    </g>
</svg>