<?xml version="1.0" encoding="UTF-8"?>
<svg width="24px" height="24px" viewBox="0 0 24 24" version="1.1" xmlns="http://www.w3.org/2000/svg" xmlns:xlink="http://www.w3.org/1999/xlink">
    <!-- Generator: Sketch 58 (84663) - https://sketch.com -->
    <title>Slice 1</title>
    <desc>Created with Sketch.</desc>
    <g id="Page-1" stroke="none" stroke-width="1" fill="none" fill-rule="evenodd">
        <g id="noun_Robot_1184077" fill="#000000" fill-rule="nonzero">
            <g id="Group">
                <path d="M20.4,20 L3.6,20 C3.3,20 2.9,19.8 2.8,19.5 C1.6,17.6 1,15.5 1,13.3 C1,7.1 5.9,2 12,2 C18.1,2 23,7.1 23,13.3 C23,15.5 22.4,17.6 21.2,19.5 C21,19.8 20.7,20 20.4,20 Z M4.2,18 L19.8,18 C20.6,16.6 21,15 21,13.3 C21,8.2 17,4 12,4 C7,4 3,8.2 3,13.3 C3,15 3.4,16.6 4.2,18 Z" id="Shape"></path>
                <path d="M19.9,8 L4.1,8 C3.5,8 3.1,7.6 3.1,7 C3.1,6.4 3.5,6 4.1,6 L19.9,6 C20.5,6 20.9,6.4 20.9,7 C20.9,7.6 20.5,8 19.9,8 Z" id="Path"></path>
                <g transform="translate(8.000000, 10.000000)" id="Path">
                    <path d="M7,2 C6.7,2 6.5,1.9 6.3,1.7 C6.1,1.5 6,1.3 6,1 C6,0.7 6.1,0.5 6.3,0.3 C6.7,-0.1 7.3,-0.1 7.7,0.3 C7.9,0.5 8,0.7 8,1 C8,1.3 7.9,1.5 7.7,1.7 C7.5,1.9 7.3,2 7,2 Z"></path>
                    <path d="M1,2 C0.7,2 0.5,1.9 0.3,1.7 C0.1,1.5 0,1.3 0,1 C0,0.7 0.1,0.5 0.3,0.3 C0.7,-0.1 1.3,-0.1 1.7,0.3 C1.9,0.5 2,0.7 2,1 C2,1.3 1.9,1.5 1.7,1.7 C1.5,1.9 1.3,2 1,2 Z"></path>
                </g>
                <g transform="translate(4.000000, 18.000000)" id="Path">
                    <path d="M3,6 C2.4,6 2,5.6 2,5 L2,1 C2,0.4 2.4,0 3,0 C3.6,0 4,0.4 4,1 L4,5 C4,5.6 3.6,6 3,6 Z"></path>
                    <path d="M5,6 L1,6 C0.4,6 0,5.6 0,5 C0,4.4 0.4,4 1,4 L5,4 C5.6,4 6,4.4 6,5 C6,5.6 5.6,6 5,6 Z"></path>
                    <path d="M13,6 C12.4,6 12,5.6 12,5 L12,1 C12,0.4 12.4,0 13,0 C13.6,0 14,0.4 14,1 L14,5 C14,5.6 13.6,6 13,6 Z"></path>
                    <path d="M15,6 L11,6 C10.4,6 10,5.6 10,5 C10,4.4 10.4,4 11,4 L15,4 C15.6,4 16,4.4 16,5 C16,5.6 15.6,6 15,6 Z"></path>
                </g>
                <path d="M17,5 C16.7,5 16.5,4.9 16.3,4.7 C15.9,4.3 15.9,3.7 16.3,3.3 L19.3,0.3 C19.7,-0.1 20.3,-0.1 20.7,0.3 C21.1,0.7 21.1,1.3 20.7,1.7 L17.7,4.7 C17.5,4.9 17.3,5 17,5 Z" id="Path"></path>
                <path d="M7,5 C6.7,5 6.5,4.9 6.3,4.7 L3.3,1.7 C2.9,1.3 2.9,0.7 3.3,0.3 C3.7,-0.1 4.3,-0.1 4.7,0.3 L7.7,3.3 C8.1,3.7 8.1,4.3 7.7,4.7 C7.5,4.9 7.3,5 7,5 Z" id="Path"></path>
                <path d="M23,11 L21.5,11 C20.9,11 20.5,10.6 20.5,10 C20.5,9.4 20.9,9 21.5,9 L23,9 C23.6,9 24,9.4 24,10 C24,10.6 23.6,11 23,11 Z" id="Path"></path>
                <path d="M2.5,11 L1,11 C0.4,11 0,10.6 0,10 C0,9.4 0.4,9 1,9 L2.5,9 C3.1,9 3.5,9.4 3.5,10 C3.5,10.6 3.1,11 2.5,11 Z" id="Path"></path>
                <path d="M14,16 L10,16 C9.4,16 9,15.6 9,15 C9,14.4 9.4,14 10,14 L14,14 C14.6,14 15,14.4 15,15 C15,15.6 14.6,16 14,16 Z" id="Path"></path>
            </g>
        </g>
    </g>
</svg>