<?xml version="1.0" encoding="UTF-8"?>
<svg width="31px" height="22px" viewBox="0 0 31 22" version="1.1" xmlns="http://www.w3.org/2000/svg" xmlns:xlink="http://www.w3.org/1999/xlink">
    <!-- Generator: Sketch 58 (84663) - https://sketch.com -->
    <title>Untitled 2</title>
    <desc>Created with Sketch.</desc>
    <g id="Page-1" stroke="none" stroke-width="1" fill="none" fill-rule="evenodd">
        <g id="Group" fill="#000000" fill-rule="nonzero">
            <path d="M1,15 C0.44771525,15 0,14.5522847 0,14 L0,8 C0,7.44771525 0.44771525,7 1,7 C1.55228475,7 2,7.44771525 2,8 L2,14 C2,14.5522847 1.55228475,15 1,15 Z" id="Path"></path>
            <path d="M5,18 C4.44771525,18 4,17.5522847 4,17 L4,5 C4,4.44771525 4.44771525,4 5,4 C5.55228475,4 6,4.44771525 6,5 L6,17 C6,17.5522847 5.55228475,18 5,18 Z" id="Path"></path>
            <path d="M9,15 C8.44771525,15 8,14.5522847 8,14 L8,8 C8,7.44771525 8.44771525,7 9,7 C9.55228475,7 10,7.44771525 10,8 L10,14 C10,14.5522847 9.55228475,15 9,15 Z" id="Path"></path>
            <path d="M13,19 C12.4477153,19 12,18.5522847 12,18 L12,4 C12,3.44771525 12.4477153,3 13,3 C13.5522847,3 14,3.44771525 14,4 L14,18 C14,18.5522847 13.5522847,19 13,19 Z" id="Path"></path>
            <path d="M17,22 C16.4477153,22 16,21.5522847 16,21 L16,1 C16,0.44771525 16.4477153,0 17,0 C17.5522847,0 18,0.44771525 18,1 L18,21 C18,21.5522847 17.5522847,22 17,22 Z" id="Path"></path>
            <path d="M21,18 C20.4477153,18 20,17.5522847 20,17 L20,5 C20,4.44771525 20.4477153,4 21,4 C21.5522847,4 22,4.44771525 22,5 L22,17 C22,17.5522847 21.5522847,18 21,18 Z" id="Path"></path>
            <path d="M25,14 C24.4477153,14 24,13.5522847 24,13 L24,9 C24,8.44771525 24.4477153,8 25,8 C25.5522847,8 26,8.44771525 26,9 L26,13 C26,13.5522847 25.5522847,14 25,14 Z" id="Path"></path>
        </g>
        <g id="Group-2" transform="translate(19.000000, 10.000000)">
            <circle id="Oval" fill="#FFFFFF" cx="6" cy="6" r="5"></circle>
            <path d="M6,12 C9.3137085,12 12,9.3137085 12,6 C12,2.6862915 9.3137085,0 6,0 C2.6862915,0 0,2.6862915 0,6 C0,9.3137085 2.6862915,12 6,12 Z M6,10 C3.790861,10 2,8.209139 2,6 C2,3.790861 3.790861,2 6,2 C8.209139,2 10,3.790861 10,6 C10,8.209139 8.209139,10 6,10 Z" id="Oval" fill="#000000" fill-rule="nonzero"></path>
            <path d="M6.17664716,5.65834536 L4.77112958,5.07612809 C4.26088922,4.8647677 3.67591622,5.10705779 3.46455583,5.61729815 C3.25319544,6.12753852 3.49548552,6.71251151 4.00572589,6.92387191 L5.41124347,7.50608917 C5.92148383,7.71744956 6.50645682,7.47515947 6.71781722,6.96491911 C6.92917761,6.45467874 6.68688752,5.86970575 6.17664716,5.65834536 Z" id="Line" fill="#000000" fill-rule="nonzero"></path>
            <path d="M6.30143546,7.44387482 L8.50111607,6.13595145 C8.9769964,5.85567238 9.13556256,5.24268408 8.85528349,4.76680374 C8.57500442,4.29092341 7.96201611,4.13235726 7.48613578,4.41263633 L5.28645517,5.7205597 C4.81057484,6.00083877 4.65200868,6.61382708 4.93228775,7.08970741 C5.21256682,7.56558774 5.82555513,7.72415389 6.30143546,7.44387482 Z" id="Line" fill="#000000" fill-rule="nonzero"></path>
        </g>
    </g>
</svg>