<?xml version="1.0" encoding="UTF-8"?>
<svg width="26px" height="22px" viewBox="0 0 26 22" version="1.1" xmlns="http://www.w3.org/2000/svg" xmlns:xlink="http://www.w3.org/1999/xlink">
    <!-- Generator: Sketch 58 (84663) - https://sketch.com -->
    <title>Untitled 2</title>
    <desc>Created with Sketch.</desc>
    <g id="Page-1" stroke="none" stroke-width="1" fill="none" fill-rule="evenodd">
        <g id="Group" fill="#000000" fill-rule="nonzero">
            <path d="M1,15 C0.44771525,15 0,14.5522847 0,14 L0,8 C0,7.44771525 0.44771525,7 1,7 C1.55228475,7 2,7.44771525 2,8 L2,14 C2,14.5522847 1.55228475,15 1,15 Z" id="Path"></path>
            <path d="M5,18 C4.44771525,18 4,17.5522847 4,17 L4,5 C4,4.44771525 4.44771525,4 5,4 C5.55228475,4 6,4.44771525 6,5 L6,17 C6,17.5522847 5.55228475,18 5,18 Z" id="Path"></path>
            <path d="M9,15 C8.44771525,15 8,14.5522847 8,14 L8,8 C8,7.44771525 8.44771525,7 9,7 C9.55228475,7 10,7.44771525 10,8 L10,14 C10,14.5522847 9.55228475,15 9,15 Z" id="Path"></path>
            <path d="M13,19 C12.4477153,19 12,18.5522847 12,18 L12,4 C12,3.44771525 12.4477153,3 13,3 C13.5522847,3 14,3.44771525 14,4 L14,18 C14,18.5522847 13.5522847,19 13,19 Z" id="Path"></path>
            <path d="M17,22 C16.4477153,22 16,21.5522847 16,21 L16,1 C16,0.44771525 16.4477153,0 17,0 C17.5522847,0 18,0.44771525 18,1 L18,21 C18,21.5522847 17.5522847,22 17,22 Z" id="Path"></path>
            <path d="M21,18 C20.4477153,18 20,17.5522847 20,17 L20,5 C20,4.44771525 20.4477153,4 21,4 C21.5522847,4 22,4.44771525 22,5 L22,17 C22,17.5522847 21.5522847,18 21,18 Z" id="Path"></path>
            <path d="M25,14 C24.4477153,14 24,13.5522847 24,13 L24,9 C24,8.44771525 24.4477153,8 25,8 C25.5522847,8 26,8.44771525 26,9 L26,13 C26,13.5522847 25.5522847,14 25,14 Z" id="Path"></path>
        </g>
    </g>
</svg>